<svg width="12" height="11" viewBox="0 0 12 11" fill="none" xmlns="http://www.w3.org/2000/svg">
<path d="M2.27991 0.220029C2.13773 0.0875494 1.94969 0.0154264 1.75539 0.0188546C1.56109 0.0222829 1.3757 0.100995 1.23829 0.238408C1.10087 0.375821 1.02216 0.561206 1.01873 0.755507C1.01531 0.949808 1.08743 1.13785 1.21991 1.28003L4.93991 5.00003L1.21991 8.72003C1.14622 8.78869 1.08712 8.87149 1.04613 8.96349C1.00514 9.05549 0.983095 9.1548 0.981318 9.25551C0.979541 9.35621 0.998066 9.45624 1.03579 9.54963C1.07351 9.64302 1.12965 9.72785 1.20087 9.79907C1.27209 9.87029 1.35692 9.92643 1.45031 9.96415C1.5437 10.0019 1.64373 10.0204 1.74443 10.0186C1.84513 10.0168 1.94445 9.9948 2.03645 9.95381C2.12845 9.91282 2.21125 9.85372 2.27991 9.78003L5.99991 6.06003L9.71991 9.78003C9.78857 9.85372 9.87137 9.91282 9.96337 9.95381C10.0554 9.9948 10.1547 10.0168 10.2554 10.0186C10.3561 10.0204 10.4561 10.0019 10.5495 9.96415C10.6429 9.92643 10.7277 9.87029 10.7989 9.79907C10.8702 9.72785 10.9263 9.64302 10.964 9.54963C11.0018 9.45624 11.0203 9.35621 11.0185 9.25551C11.0167 9.1548 10.9947 9.05549 10.9537 8.96349C10.9127 8.87149 10.8536 8.78869 10.7799 8.72003L7.05991 5.00003L10.7799 1.28003C10.9124 1.13785 10.9845 0.949808 10.9811 0.755507C10.9777 0.561206 10.8989 0.375821 10.7615 0.238408C10.6241 0.100995 10.4387 0.0222829 10.2444 0.0188546C10.0501 0.0154264 9.86208 0.0875494 9.71991 0.220029L5.99991 3.94003L2.27991 0.220029Z" fill="#5E5E5E"/>
</svg>
