<svg width="18" height="18" viewBox="0 0 18 18" fill="none" xmlns="http://www.w3.org/2000/svg">
<path d="M15.75 14.2505H2.25C2.05109 14.2505 1.86032 14.3295 1.71967 14.4702C1.57902 14.6108 1.5 14.8016 1.5 15.0005C1.5 15.1994 1.57902 15.3902 1.71967 15.5308C1.86032 15.6715 2.05109 15.7505 2.25 15.7505H15.75C15.9489 15.7505 16.1397 15.6715 16.2803 15.5308C16.421 15.3902 16.5 15.1994 16.5 15.0005C16.5 14.8016 16.421 14.6108 16.2803 14.4702C16.1397 14.3295 15.9489 14.2505 15.75 14.2505Z" fill="#F1F1F1"/>
<path d="M9.00112 1.49951C8.8022 1.49951 8.61144 1.57853 8.47079 1.71918C8.33013 1.85983 8.25112 2.0506 8.25112 2.24951V10.192L5.78362 7.71701C5.64239 7.57578 5.45084 7.49644 5.25112 7.49644C5.05139 7.49644 4.85984 7.57578 4.71862 7.71701C4.57739 7.85824 4.49805 8.04979 4.49805 8.24951C4.49805 8.44924 4.57739 8.64078 4.71862 8.78201L8.46862 12.532C8.53834 12.6023 8.62129 12.6581 8.71268 12.6962C8.80408 12.7343 8.90211 12.7539 9.00112 12.7539C9.10012 12.7539 9.19815 12.7343 9.28955 12.6962C9.38094 12.6581 9.46389 12.6023 9.53362 12.532L13.2836 8.78201C13.3535 8.71208 13.409 8.62907 13.4469 8.5377C13.4847 8.44633 13.5042 8.34841 13.5042 8.24951C13.5042 8.15062 13.4847 8.05269 13.4469 7.96132C13.409 7.86996 13.3535 7.78694 13.2836 7.71701C13.2137 7.64708 13.1307 7.59161 13.0393 7.55377C12.9479 7.51592 12.85 7.49644 12.7511 7.49644C12.6522 7.49644 12.5543 7.51592 12.4629 7.55377C12.3716 7.59161 12.2885 7.64708 12.2186 7.71701L9.75112 10.192V2.24951C9.75112 2.0506 9.6721 1.85983 9.53145 1.71918C9.39079 1.57853 9.20003 1.49951 9.00112 1.49951Z" fill="#F1F1F1"/>
</svg>
