<svg width="33" height="32" viewBox="0 0 33 32" fill="none" xmlns="http://www.w3.org/2000/svg">
<path d="M5.76078 7.71039C5.39723 7.48594 4.98036 7.36261 4.55322 7.35313C4.12608 7.34365 3.70415 7.44837 3.33101 7.65647C2.95787 7.86456 2.64704 8.1685 2.43063 8.53688C2.21422 8.90527 2.10007 9.32474 2.09998 9.75199V22.248C2.09979 22.6754 2.21373 23.095 2.43003 23.4637C2.64632 23.8323 2.95712 24.1364 3.33031 24.3447C3.7035 24.553 4.12555 24.6579 4.55282 24.6485C4.9801 24.639 5.39712 24.5157 5.76078 24.2912L15.8776 18.0432C16.1256 17.8896 16.3336 17.7024 16.5 17.4928V22.2496C16.5001 22.6768 16.6142 23.0963 16.8306 23.4647C17.047 23.8331 17.3579 24.137 17.731 24.3451C18.1042 24.5532 18.5261 24.6579 18.9532 24.6484C19.3804 24.639 19.7972 24.5156 20.1608 24.2912L30.2776 18.0432C30.6259 17.8282 30.9135 17.5277 31.113 17.1702C31.3125 16.8127 31.4172 16.4102 31.4172 16.0008C31.4172 15.5914 31.3125 15.1889 31.113 14.8314C30.9135 14.4739 30.6259 14.1734 30.2776 13.9584L20.1608 7.71199C19.7973 7.48761 19.3806 7.36429 18.9536 7.35474C18.5266 7.34519 18.1048 7.44977 17.7317 7.65768C17.3586 7.86558 17.0478 8.16929 16.8312 8.53745C16.6147 8.9056 16.5004 9.32488 16.5 9.75199V14.5088C16.3259 14.2907 16.1153 14.1044 15.8776 13.9584L5.76078 7.71199V7.71039Z" fill="#F1F1F1"/>
</svg>
