<svg width="33" height="32" viewBox="0 0 33 32" fill="none" xmlns="http://www.w3.org/2000/svg">
<path d="M27.2391 24.2877C27.6026 24.5121 28.0195 24.6354 28.4467 24.6449C28.8738 24.6544 29.2957 24.5497 29.6689 24.3416C30.042 24.1335 30.3528 23.8295 30.5692 23.4612C30.7857 23.0928 30.8998 22.6733 30.8999 22.2461V9.75006C30.9001 9.32268 30.7861 8.903 30.5699 8.53439C30.3536 8.16578 30.0428 7.86162 29.6696 7.65333C29.2964 7.44504 28.8743 7.34018 28.4471 7.34959C28.0198 7.359 27.6028 7.48234 27.2391 7.70686L17.1223 13.9549C16.8743 14.1085 16.6663 14.2957 16.4999 14.5053V9.74846C16.4998 9.32121 16.3857 8.90174 16.1692 8.53336C15.9528 8.16497 15.642 7.86104 15.2689 7.65294C14.8957 7.44484 14.4738 7.34012 14.0467 7.3496C13.6195 7.35908 13.2026 7.48241 12.8391 7.70686L2.7223 13.9549C2.37393 14.1698 2.08634 14.4704 1.88688 14.8278C1.68741 15.1853 1.5827 15.5879 1.5827 15.9973C1.5827 16.4066 1.68741 16.8092 1.88688 17.1667C2.08634 17.5242 2.37393 17.8247 2.7223 18.0397L12.8391 24.2861C13.2025 24.5104 13.6193 24.6338 14.0463 24.6433C14.4733 24.6529 14.8951 24.5483 15.2682 24.3404C15.6413 24.1325 15.9521 23.8288 16.1686 23.4606C16.3852 23.0924 16.4995 22.6732 16.4999 22.2461V17.4893C16.6739 17.7074 16.8845 17.8936 17.1223 18.0397L27.2391 24.2861V24.2877Z" fill="#F1F1F1"/>
</svg>
