<svg width="18" height="17" viewBox="0 0 18 17" fill="none" xmlns="http://www.w3.org/2000/svg">
<path d="M6.1875 9.5625C6.87786 9.5625 7.4375 9.00286 7.4375 8.3125C7.4375 7.62214 6.87786 7.0625 6.1875 7.0625C5.49714 7.0625 4.9375 7.62214 4.9375 8.3125C4.9375 9.00286 5.49714 9.5625 6.1875 9.5625Z" fill="#F1F1F1"/>
<path d="M4.3125 8.31211C4.3125 8.31211 4.3125 8.27461 4.3125 8.25586L0.875 11.1246L1.5 12.3746L3.0625 11.4809V16.1246C3.0625 16.2075 3.09542 16.287 3.15403 16.3456C3.21263 16.4042 3.29212 16.4371 3.375 16.4371C3.45788 16.4371 3.53737 16.4042 3.59597 16.3456C3.65458 16.287 3.6875 16.2075 3.6875 16.1246V11.1246L5.5625 10.0684C5.19878 9.93977 4.88358 9.70213 4.65988 9.38783C4.43618 9.07353 4.31487 8.69788 4.3125 8.31211Z" fill="#F1F1F1"/>
<path d="M10.25 1.12465L9.68127 4.53715L16.5563 5.84965L17.125 2.99965C15.5563 1.4309 12.6 -0.444102 10.25 1.12465Z" fill="#F1F1F1"/>
<path d="M13.9625 7.74278C14.0306 7.53679 14.0149 7.31225 13.9187 7.11778C13.8554 6.99032 13.7604 6.88125 13.6429 6.801C13.5254 6.72076 13.3892 6.67203 13.2475 6.65949C13.1057 6.64694 12.9631 6.671 12.8333 6.72936C12.7035 6.78771 12.5909 6.87842 12.5062 6.99278L11.1562 8.78653L10.6687 10.3303L12.0812 11.4553L13.1625 10.899L13.875 9.81153C13.9724 9.66364 14.0162 9.48686 13.9991 9.3106C13.9821 9.13434 13.9052 8.96924 13.7812 8.84278C13.7392 8.80262 13.7097 8.75112 13.6964 8.69454C13.6831 8.63795 13.6865 8.57871 13.7062 8.52403L13.9625 7.74278Z" fill="#F1F1F1"/>
<path d="M14.35 8.55625C14.517 8.77893 14.6129 9.04689 14.625 9.325C15.1511 9.04325 15.5983 8.63427 15.9258 8.13537C16.2533 7.63646 16.4507 7.06351 16.5 6.46875L9.62496 5.15625C9.47145 5.81402 9.4699 6.49813 9.62043 7.15659C9.77097 7.81505 10.0696 8.43053 10.4937 8.95625L10.625 8.53125C10.6392 8.49875 10.6559 8.4674 10.675 8.4375L12.05 6.6C12.1987 6.39551 12.3979 6.23308 12.6282 6.12857C12.8585 6.02405 13.1119 5.98103 13.3638 6.0037C13.6156 6.02636 13.8573 6.11395 14.0652 6.25789C14.2731 6.40184 14.4401 6.59723 14.55 6.825C14.6359 6.99609 14.6868 7.18264 14.6997 7.37368C14.7126 7.56472 14.6872 7.75642 14.625 7.9375L14.35 8.55625Z" fill="#F1F1F1"/>
<path d="M14.6937 9.29883L14.625 9.36133C14.6328 9.64358 14.5519 9.92119 14.3937 10.1551L13.6375 11.2988C13.6074 11.342 13.5664 11.3765 13.5187 11.3988L12.6125 11.8676L12.9437 12.1301C12.9995 12.1742 13.0386 12.236 13.0545 12.3053C13.0704 12.3746 13.0622 12.4473 13.0312 12.5113L11.225 16.1238H16.5V12.7551C16.5008 12.0759 16.3369 11.4066 16.0223 10.8046C15.7077 10.2026 15.2518 9.68594 14.6937 9.29883Z" fill="#F1F1F1"/>
<path d="M9.73123 10.3613L6.88123 16.1238H7.12498H10.525L12.3562 12.4613L9.73123 10.3613Z" fill="#F1F1F1"/>
</svg>
