<svg width="14" height="14" viewBox="0 0 14 14" fill="none" xmlns="http://www.w3.org/2000/svg">
<path fill-rule="evenodd" clip-rule="evenodd" d="M6.19998 1.79961C3.76992 1.79961 1.79998 3.76956 1.79998 6.19961C1.79998 8.62966 3.76992 10.5996 6.19998 10.5996C7.41517 10.5996 8.51434 10.1078 9.31125 9.31088C10.1081 8.51398 10.6 7.4148 10.6 6.19961C10.6 3.76956 8.63003 1.79961 6.19998 1.79961ZM0.599976 6.19961C0.599976 3.10681 3.10718 0.599609 6.19998 0.599609C9.29277 0.599609 11.8 3.10681 11.8 6.19961C11.8 7.52963 11.3357 8.75206 10.5614 9.71246L13.2242 12.3753C13.4586 12.6097 13.4586 12.9896 13.2242 13.2239C12.9899 13.4582 12.61 13.4582 12.3757 13.2239L9.71283 10.561C8.75242 11.3354 7.52999 11.7996 6.19998 11.7996C3.10718 11.7996 0.599976 9.2924 0.599976 6.19961Z" fill="#F1F1F1"/>
</svg>
