<svg width="18" height="18" viewBox="0 0 18 18" fill="none" xmlns="http://www.w3.org/2000/svg">
<path fill-rule="evenodd" clip-rule="evenodd" d="M6.5 2.75C6.77905 2.75 7.02429 2.93499 7.10095 3.2033L7.77862 5.57512C8.07523 6.61327 8.88673 7.42477 9.92488 7.72138L12.2967 8.39905C12.565 8.47571 12.75 8.72095 12.75 9C12.75 9.27905 12.565 9.52429 12.2967 9.60095L9.92488 10.2786C8.88673 10.5752 8.07523 11.3867 7.77862 12.4249L7.10095 14.7967C7.02429 15.065 6.77905 15.25 6.5 15.25C6.22095 15.25 5.97571 15.065 5.89905 14.7967L5.22138 12.4249C4.92477 11.3867 4.11327 10.5752 3.07512 10.2786L0.703299 9.60095C0.434986 9.52429 0.25 9.27905 0.25 9C0.25 8.72095 0.434986 8.47571 0.703299 8.39905L3.07512 7.72138C4.11327 7.42477 4.92477 6.61327 5.22138 5.57512L5.89905 3.2033C5.97571 2.93499 6.22095 2.75 6.5 2.75Z" fill="white"/>
<path fill-rule="evenodd" clip-rule="evenodd" d="M14 0.25C14.2868 0.25 14.5368 0.445186 14.6063 0.723415L14.8221 1.5863C15.018 2.37005 15.63 2.982 16.4137 3.17794L17.2766 3.39366C17.5548 3.46322 17.75 3.71321 17.75 4C17.75 4.28679 17.5548 4.53678 17.2766 4.60634L16.4137 4.82206C15.63 5.018 15.018 5.62995 14.8221 6.4137L14.6063 7.27658C14.5368 7.55481 14.2868 7.75 14 7.75C13.7132 7.75 13.4632 7.55481 13.3937 7.27658L13.1779 6.4137C12.982 5.62995 12.37 5.018 11.5863 4.82206L10.7234 4.60634C10.4452 4.53678 10.25 4.28679 10.25 4C10.25 3.71321 10.4452 3.46322 10.7234 3.39366L11.5863 3.17794C12.37 2.982 12.982 2.37005 13.1779 1.5863L13.3937 0.723415C13.4632 0.445186 13.7132 0.25 14 0.25Z" fill="white"/>
<path fill-rule="evenodd" clip-rule="evenodd" d="M12.75 11.5C13.019 11.5 13.2579 11.6721 13.3429 11.9274L13.6715 12.913C13.7959 13.2862 14.0888 13.5791 14.462 13.7035L15.4476 14.0321C15.7029 14.1171 15.875 14.356 15.875 14.625C15.875 14.894 15.7029 15.1329 15.4476 15.2179L14.462 15.5465C14.0888 15.6709 13.7959 15.9638 13.6715 16.337L13.3429 17.3226C13.2579 17.5779 13.019 17.75 12.75 17.75C12.481 17.75 12.2421 17.5779 12.1571 17.3226L11.8285 16.337C11.7041 15.9638 11.4112 15.6709 11.038 15.5465L10.0524 15.2179C9.79714 15.1329 9.625 14.894 9.625 14.625C9.625 14.356 9.79714 14.1171 10.0524 14.0321L11.038 13.7035C11.4112 13.5791 11.7041 13.2862 11.8285 12.913L12.1571 11.9274C12.2421 11.6721 12.481 11.5 12.75 11.5Z" fill="white"/>
</svg>
